<mxfile host="app.diagrams.net" agent="Mozilla/5.0 (Windows NT 10.0; Win64; x64) AppleWebKit/537.36 (KHTML, like Gecko) Chrome/134.0.0.0 Safari/537.36" version="26.2.4">
  <diagram name="第 1 页" id="xtScbFzGM7mUoNcz4HWv">
    <mxGraphModel dx="985" dy="584" grid="1" gridSize="10" guides="1" tooltips="1" connect="1" arrows="1" fold="1" page="1" pageScale="1" pageWidth="827" pageHeight="1169" math="1" shadow="0">
      <root>
        <mxCell id="0" />
        <mxCell id="1" parent="0" />
        <mxCell id="2DcF1gHjVt7lIWrnkzcG-1" value="&lt;font style=&quot;font-size: 10px;&quot; face=&quot;Simsun&quot;&gt;&lt;b&gt;轨迹表示学习模型&lt;/b&gt;&lt;/font&gt;" style="rounded=1;whiteSpace=wrap;html=1;fillColor=#fff2cc;strokeColor=#d6b656;" vertex="1" parent="1">
          <mxGeometry x="330" y="90" width="50" height="120" as="geometry" />
        </mxCell>
        <mxCell id="2DcF1gHjVt7lIWrnkzcG-10" value="" style="curved=1;endArrow=none;html=1;rounded=0;fillColor=#f8cecc;strokeColor=#b85450;startFill=0;strokeWidth=5;" edge="1" parent="1">
          <mxGeometry width="50" height="50" relative="1" as="geometry">
            <mxPoint x="110" y="255" as="sourcePoint" />
            <mxPoint x="160" y="205" as="targetPoint" />
            <Array as="points">
              <mxPoint x="160" y="255" />
              <mxPoint x="90" y="215" />
            </Array>
          </mxGeometry>
        </mxCell>
        <mxCell id="2DcF1gHjVt7lIWrnkzcG-11" value="" style="rounded=0;whiteSpace=wrap;html=1;fillColor=#f8cecc;strokeColor=#b85450;" vertex="1" parent="1">
          <mxGeometry x="180" y="225" width="10" height="10" as="geometry" />
        </mxCell>
        <mxCell id="2DcF1gHjVt7lIWrnkzcG-12" value="" style="rounded=0;whiteSpace=wrap;html=1;fillColor=#f8cecc;strokeColor=#b85450;" vertex="1" parent="1">
          <mxGeometry x="190" y="225" width="10" height="10" as="geometry" />
        </mxCell>
        <mxCell id="2DcF1gHjVt7lIWrnkzcG-13" value="" style="rounded=0;whiteSpace=wrap;html=1;fillColor=#f8cecc;strokeColor=#b85450;" vertex="1" parent="1">
          <mxGeometry x="200" y="225" width="10" height="10" as="geometry" />
        </mxCell>
        <mxCell id="2DcF1gHjVt7lIWrnkzcG-14" value="" style="rounded=0;whiteSpace=wrap;html=1;fillColor=#f8cecc;strokeColor=#b85450;" vertex="1" parent="1">
          <mxGeometry x="210" y="225" width="10" height="10" as="geometry" />
        </mxCell>
        <mxCell id="2DcF1gHjVt7lIWrnkzcG-15" value="" style="rounded=0;whiteSpace=wrap;html=1;fillColor=#f8cecc;strokeColor=#b85450;" vertex="1" parent="1">
          <mxGeometry x="220" y="225" width="10" height="10" as="geometry" />
        </mxCell>
        <mxCell id="2DcF1gHjVt7lIWrnkzcG-16" value="" style="rounded=0;whiteSpace=wrap;html=1;fillColor=#f8cecc;strokeColor=#b85450;" vertex="1" parent="1">
          <mxGeometry x="230" y="225" width="10" height="10" as="geometry" />
        </mxCell>
        <mxCell id="2DcF1gHjVt7lIWrnkzcG-17" value="" style="rounded=0;whiteSpace=wrap;html=1;fillColor=#f8cecc;strokeColor=#b85450;" vertex="1" parent="1">
          <mxGeometry x="240" y="225" width="10" height="10" as="geometry" />
        </mxCell>
        <mxCell id="2DcF1gHjVt7lIWrnkzcG-18" value="" style="rounded=0;whiteSpace=wrap;html=1;fillColor=#f8cecc;strokeColor=#b85450;" vertex="1" parent="1">
          <mxGeometry x="250" y="225" width="10" height="10" as="geometry" />
        </mxCell>
        <mxCell id="2DcF1gHjVt7lIWrnkzcG-19" value="" style="rounded=0;whiteSpace=wrap;html=1;fillColor=#f8cecc;strokeColor=#b85450;" vertex="1" parent="1">
          <mxGeometry x="260" y="225" width="10" height="10" as="geometry" />
        </mxCell>
        <mxCell id="2DcF1gHjVt7lIWrnkzcG-20" value="" style="rounded=0;whiteSpace=wrap;html=1;fillColor=#f8cecc;strokeColor=#b85450;" vertex="1" parent="1">
          <mxGeometry x="270" y="225" width="10" height="10" as="geometry" />
        </mxCell>
        <mxCell id="2DcF1gHjVt7lIWrnkzcG-41" value="" style="rounded=0;whiteSpace=wrap;html=1;fillColor=#f8cecc;strokeColor=#b85450;" vertex="1" parent="1">
          <mxGeometry x="180" y="215" width="10" height="10" as="geometry" />
        </mxCell>
        <mxCell id="2DcF1gHjVt7lIWrnkzcG-42" value="" style="rounded=0;whiteSpace=wrap;html=1;fillColor=#f8cecc;strokeColor=#b85450;" vertex="1" parent="1">
          <mxGeometry x="190" y="215" width="10" height="10" as="geometry" />
        </mxCell>
        <mxCell id="2DcF1gHjVt7lIWrnkzcG-43" value="" style="rounded=0;whiteSpace=wrap;html=1;fillColor=#f8cecc;strokeColor=#b85450;" vertex="1" parent="1">
          <mxGeometry x="200" y="215" width="10" height="10" as="geometry" />
        </mxCell>
        <mxCell id="2DcF1gHjVt7lIWrnkzcG-44" value="" style="rounded=0;whiteSpace=wrap;html=1;fillColor=#f8cecc;strokeColor=#b85450;" vertex="1" parent="1">
          <mxGeometry x="210" y="215" width="10" height="10" as="geometry" />
        </mxCell>
        <mxCell id="2DcF1gHjVt7lIWrnkzcG-45" value="" style="rounded=0;whiteSpace=wrap;html=1;fillColor=#f8cecc;strokeColor=#b85450;" vertex="1" parent="1">
          <mxGeometry x="220" y="215" width="10" height="10" as="geometry" />
        </mxCell>
        <mxCell id="2DcF1gHjVt7lIWrnkzcG-46" value="" style="rounded=0;whiteSpace=wrap;html=1;fillColor=#f8cecc;strokeColor=#b85450;" vertex="1" parent="1">
          <mxGeometry x="230" y="215" width="10" height="10" as="geometry" />
        </mxCell>
        <mxCell id="2DcF1gHjVt7lIWrnkzcG-47" value="" style="rounded=0;whiteSpace=wrap;html=1;fillColor=#f8cecc;strokeColor=#b85450;" vertex="1" parent="1">
          <mxGeometry x="240" y="215" width="10" height="10" as="geometry" />
        </mxCell>
        <mxCell id="2DcF1gHjVt7lIWrnkzcG-48" value="" style="rounded=0;whiteSpace=wrap;html=1;fillColor=#f8cecc;strokeColor=#b85450;" vertex="1" parent="1">
          <mxGeometry x="250" y="215" width="10" height="10" as="geometry" />
        </mxCell>
        <mxCell id="2DcF1gHjVt7lIWrnkzcG-49" value="" style="rounded=0;whiteSpace=wrap;html=1;fillColor=#f8cecc;strokeColor=#b85450;" vertex="1" parent="1">
          <mxGeometry x="260" y="215" width="10" height="10" as="geometry" />
        </mxCell>
        <mxCell id="2DcF1gHjVt7lIWrnkzcG-50" value="" style="rounded=0;whiteSpace=wrap;html=1;fillColor=#f8cecc;strokeColor=#b85450;" vertex="1" parent="1">
          <mxGeometry x="270" y="215" width="10" height="10" as="geometry" />
        </mxCell>
        <mxCell id="2DcF1gHjVt7lIWrnkzcG-51" value="" style="rounded=0;whiteSpace=wrap;html=1;fillColor=#f8cecc;strokeColor=#b85450;" vertex="1" parent="1">
          <mxGeometry x="180" y="235" width="10" height="10" as="geometry" />
        </mxCell>
        <mxCell id="2DcF1gHjVt7lIWrnkzcG-52" value="" style="rounded=0;whiteSpace=wrap;html=1;fillColor=#f8cecc;strokeColor=#b85450;" vertex="1" parent="1">
          <mxGeometry x="190" y="235" width="10" height="10" as="geometry" />
        </mxCell>
        <mxCell id="2DcF1gHjVt7lIWrnkzcG-53" value="" style="rounded=0;whiteSpace=wrap;html=1;fillColor=#f8cecc;strokeColor=#b85450;" vertex="1" parent="1">
          <mxGeometry x="200" y="235" width="10" height="10" as="geometry" />
        </mxCell>
        <mxCell id="2DcF1gHjVt7lIWrnkzcG-54" value="" style="rounded=0;whiteSpace=wrap;html=1;fillColor=#f8cecc;strokeColor=#b85450;" vertex="1" parent="1">
          <mxGeometry x="210" y="235" width="10" height="10" as="geometry" />
        </mxCell>
        <mxCell id="2DcF1gHjVt7lIWrnkzcG-55" value="" style="rounded=0;whiteSpace=wrap;html=1;fillColor=#f8cecc;strokeColor=#b85450;" vertex="1" parent="1">
          <mxGeometry x="220" y="235" width="10" height="10" as="geometry" />
        </mxCell>
        <mxCell id="2DcF1gHjVt7lIWrnkzcG-56" value="" style="rounded=0;whiteSpace=wrap;html=1;fillColor=#f8cecc;strokeColor=#b85450;" vertex="1" parent="1">
          <mxGeometry x="230" y="235" width="10" height="10" as="geometry" />
        </mxCell>
        <mxCell id="2DcF1gHjVt7lIWrnkzcG-57" value="" style="rounded=0;whiteSpace=wrap;html=1;fillColor=#f8cecc;strokeColor=#b85450;" vertex="1" parent="1">
          <mxGeometry x="240" y="235" width="10" height="10" as="geometry" />
        </mxCell>
        <mxCell id="2DcF1gHjVt7lIWrnkzcG-58" value="" style="rounded=0;whiteSpace=wrap;html=1;fillColor=#f8cecc;strokeColor=#b85450;" vertex="1" parent="1">
          <mxGeometry x="250" y="235" width="10" height="10" as="geometry" />
        </mxCell>
        <mxCell id="2DcF1gHjVt7lIWrnkzcG-59" value="" style="rounded=0;whiteSpace=wrap;html=1;fillColor=#f8cecc;strokeColor=#b85450;" vertex="1" parent="1">
          <mxGeometry x="260" y="235" width="10" height="10" as="geometry" />
        </mxCell>
        <mxCell id="2DcF1gHjVt7lIWrnkzcG-60" value="" style="rounded=0;whiteSpace=wrap;html=1;fillColor=#f8cecc;strokeColor=#b85450;" vertex="1" parent="1">
          <mxGeometry x="270" y="235" width="10" height="10" as="geometry" />
        </mxCell>
        <mxCell id="2DcF1gHjVt7lIWrnkzcG-77" value="" style="rounded=0;whiteSpace=wrap;html=1;fillColor=#fff2cc;strokeColor=#d6b656;" vertex="1" parent="1">
          <mxGeometry x="420" y="130" width="10" height="10" as="geometry" />
        </mxCell>
        <mxCell id="2DcF1gHjVt7lIWrnkzcG-78" value="" style="rounded=0;whiteSpace=wrap;html=1;fillColor=#fff2cc;strokeColor=#d6b656;" vertex="1" parent="1">
          <mxGeometry x="420" y="140" width="10" height="10" as="geometry" />
        </mxCell>
        <mxCell id="2DcF1gHjVt7lIWrnkzcG-79" value="" style="rounded=0;whiteSpace=wrap;html=1;fillColor=#fff2cc;strokeColor=#d6b656;" vertex="1" parent="1">
          <mxGeometry x="420" y="120" width="10" height="10" as="geometry" />
        </mxCell>
        <mxCell id="2DcF1gHjVt7lIWrnkzcG-80" value="" style="rounded=0;whiteSpace=wrap;html=1;fillColor=#fff2cc;strokeColor=#d6b656;" vertex="1" parent="1">
          <mxGeometry x="420" y="160" width="10" height="10" as="geometry" />
        </mxCell>
        <mxCell id="2DcF1gHjVt7lIWrnkzcG-81" value="" style="rounded=0;whiteSpace=wrap;html=1;fillColor=#fff2cc;strokeColor=#d6b656;" vertex="1" parent="1">
          <mxGeometry x="420" y="170" width="10" height="10" as="geometry" />
        </mxCell>
        <mxCell id="2DcF1gHjVt7lIWrnkzcG-82" value="" style="rounded=0;whiteSpace=wrap;html=1;fillColor=#fff2cc;strokeColor=#d6b656;" vertex="1" parent="1">
          <mxGeometry x="420" y="150" width="10" height="10" as="geometry" />
        </mxCell>
        <mxCell id="2DcF1gHjVt7lIWrnkzcG-84" value="" style="endArrow=classic;html=1;rounded=0;fillColor=#f8cecc;strokeColor=#b85450;" edge="1" parent="1">
          <mxGeometry width="50" height="50" relative="1" as="geometry">
            <mxPoint x="290" y="230" as="sourcePoint" />
            <mxPoint x="320" y="190" as="targetPoint" />
          </mxGeometry>
        </mxCell>
        <mxCell id="2DcF1gHjVt7lIWrnkzcG-87" value="" style="endArrow=classic;html=1;rounded=0;fillColor=#fff2cc;strokeColor=#d6b656;" edge="1" parent="1">
          <mxGeometry width="50" height="50" relative="1" as="geometry">
            <mxPoint x="390" y="150" as="sourcePoint" />
            <mxPoint x="410" y="150" as="targetPoint" />
          </mxGeometry>
        </mxCell>
        <mxCell id="2DcF1gHjVt7lIWrnkzcG-90" value="&lt;font style=&quot;font-size: 8px;&quot;&gt;$$(L,F)$$&lt;/font&gt;" style="text;html=1;align=center;verticalAlign=middle;whiteSpace=wrap;rounded=0;" vertex="1" parent="1">
          <mxGeometry x="180" y="245" width="40" height="20" as="geometry" />
        </mxCell>
        <mxCell id="2DcF1gHjVt7lIWrnkzcG-124" value="&lt;font face=&quot;Simsun&quot;&gt;&lt;span style=&quot;font-size: 10px;&quot;&gt;&lt;b&gt;下游任务分析算法&lt;/b&gt;&lt;/span&gt;&lt;/font&gt;" style="rounded=1;whiteSpace=wrap;html=1;fillColor=#e1d5e7;strokeColor=#9673a6;" vertex="1" parent="1">
          <mxGeometry x="650" y="159" width="50" height="120" as="geometry" />
        </mxCell>
        <mxCell id="2DcF1gHjVt7lIWrnkzcG-128" value="" style="endArrow=classic;html=1;rounded=0;fillColor=#f8cecc;strokeColor=#b85450;" edge="1" parent="1">
          <mxGeometry width="50" height="50" relative="1" as="geometry">
            <mxPoint x="290" y="230" as="sourcePoint" />
            <mxPoint x="320" y="270" as="targetPoint" />
          </mxGeometry>
        </mxCell>
        <mxCell id="2DcF1gHjVt7lIWrnkzcG-140" value="&lt;font style=&quot;font-size: 10px;&quot; face=&quot;Simsun&quot;&gt;&lt;b&gt;外部信息&lt;/b&gt;&lt;/font&gt;" style="shape=datastore;whiteSpace=wrap;html=1;fillColor=#ffe6cc;strokeColor=#d79b00;" vertex="1" parent="1">
          <mxGeometry x="220" y="300" width="60" height="60" as="geometry" />
        </mxCell>
        <mxCell id="2DcF1gHjVt7lIWrnkzcG-141" value="" style="endArrow=classic;html=1;rounded=0;fillColor=#ffe6cc;strokeColor=#d79b00;" edge="1" parent="1">
          <mxGeometry width="50" height="50" relative="1" as="geometry">
            <mxPoint x="290" y="329.8" as="sourcePoint" />
            <mxPoint x="320" y="329.8" as="targetPoint" />
          </mxGeometry>
        </mxCell>
        <mxCell id="2DcF1gHjVt7lIWrnkzcG-154" value="" style="group" vertex="1" connectable="0" parent="1">
          <mxGeometry x="410" y="280" width="30" height="60" as="geometry" />
        </mxCell>
        <mxCell id="2DcF1gHjVt7lIWrnkzcG-130" value="&lt;pre&gt;&lt;br&gt;&lt;/pre&gt;" style="rounded=0;whiteSpace=wrap;html=1;fillColor=#dae8fc;strokeColor=#6c8ebf;align=center;" vertex="1" parent="2DcF1gHjVt7lIWrnkzcG-154">
          <mxGeometry x="10" y="10" width="10" height="10" as="geometry" />
        </mxCell>
        <mxCell id="2DcF1gHjVt7lIWrnkzcG-131" value="" style="rounded=0;whiteSpace=wrap;html=1;fillColor=#dae8fc;strokeColor=#6c8ebf;" vertex="1" parent="2DcF1gHjVt7lIWrnkzcG-154">
          <mxGeometry x="10" y="20" width="10" height="10" as="geometry" />
        </mxCell>
        <mxCell id="2DcF1gHjVt7lIWrnkzcG-132" value="" style="rounded=0;whiteSpace=wrap;html=1;fillColor=#dae8fc;strokeColor=#6c8ebf;" vertex="1" parent="2DcF1gHjVt7lIWrnkzcG-154">
          <mxGeometry x="10" y="30" width="10" height="10" as="geometry" />
        </mxCell>
        <mxCell id="2DcF1gHjVt7lIWrnkzcG-133" value="" style="rounded=0;whiteSpace=wrap;html=1;fillColor=#dae8fc;strokeColor=#6c8ebf;" vertex="1" parent="2DcF1gHjVt7lIWrnkzcG-154">
          <mxGeometry x="10" y="40" width="10" height="10" as="geometry" />
        </mxCell>
        <mxCell id="2DcF1gHjVt7lIWrnkzcG-150" value="&lt;font face=&quot;Comic Sans MS&quot;&gt;T&lt;/font&gt;" style="text;html=1;align=center;verticalAlign=middle;whiteSpace=wrap;rounded=0;fontSize=8;" vertex="1" parent="2DcF1gHjVt7lIWrnkzcG-154">
          <mxGeometry width="30" height="30" as="geometry" />
        </mxCell>
        <mxCell id="2DcF1gHjVt7lIWrnkzcG-151" value="&lt;font face=&quot;Comic Sans MS&quot;&gt;e&lt;/font&gt;" style="text;html=1;align=center;verticalAlign=middle;whiteSpace=wrap;rounded=0;fontSize=8;" vertex="1" parent="2DcF1gHjVt7lIWrnkzcG-154">
          <mxGeometry y="10" width="30" height="30" as="geometry" />
        </mxCell>
        <mxCell id="2DcF1gHjVt7lIWrnkzcG-152" value="&lt;font face=&quot;Comic Sans MS&quot;&gt;x&lt;/font&gt;" style="text;html=1;align=center;verticalAlign=middle;whiteSpace=wrap;rounded=0;fontSize=8;" vertex="1" parent="2DcF1gHjVt7lIWrnkzcG-154">
          <mxGeometry y="20" width="30" height="30" as="geometry" />
        </mxCell>
        <mxCell id="2DcF1gHjVt7lIWrnkzcG-153" value="&lt;font face=&quot;Comic Sans MS&quot;&gt;t&lt;/font&gt;" style="text;html=1;align=center;verticalAlign=middle;whiteSpace=wrap;rounded=0;fontSize=8;" vertex="1" parent="2DcF1gHjVt7lIWrnkzcG-154">
          <mxGeometry y="30" width="30" height="30" as="geometry" />
        </mxCell>
        <mxCell id="2DcF1gHjVt7lIWrnkzcG-155" value="&lt;font face=&quot;Simsun&quot;&gt;&lt;span style=&quot;font-size: 10px;&quot;&gt;&lt;b&gt;Prompt&lt;/b&gt;&lt;/span&gt;&lt;/font&gt;&lt;div&gt;&lt;font face=&quot;Simsun&quot;&gt;&lt;span style=&quot;font-size: 10px;&quot;&gt;&lt;b&gt;生成&lt;/b&gt;&lt;/span&gt;&lt;/font&gt;&lt;/div&gt;" style="rounded=1;whiteSpace=wrap;html=1;fillColor=#dae8fc;strokeColor=#6c8ebf;" vertex="1" parent="1">
          <mxGeometry x="330" y="250" width="50" height="120" as="geometry" />
        </mxCell>
        <mxCell id="2DcF1gHjVt7lIWrnkzcG-156" value="" style="endArrow=classic;html=1;rounded=0;fillColor=#dae8fc;strokeColor=#6c8ebf;" edge="1" parent="1">
          <mxGeometry width="50" height="50" relative="1" as="geometry">
            <mxPoint x="390" y="309.88" as="sourcePoint" />
            <mxPoint x="410" y="310.12" as="targetPoint" />
          </mxGeometry>
        </mxCell>
        <mxCell id="2DcF1gHjVt7lIWrnkzcG-157" value="&lt;font style=&quot;font-size: 8px;&quot;&gt;$$(H)$$&lt;/font&gt;" style="text;html=1;align=center;verticalAlign=middle;whiteSpace=wrap;rounded=0;" vertex="1" parent="1">
          <mxGeometry x="430" y="160" width="30" height="20" as="geometry" />
        </mxCell>
        <mxCell id="2DcF1gHjVt7lIWrnkzcG-158" value="" style="endArrow=classic;html=1;rounded=0;fillColor=#dae8fc;strokeColor=#6c8ebf;" edge="1" parent="1">
          <mxGeometry width="50" height="50" relative="1" as="geometry">
            <mxPoint x="440" y="309.89" as="sourcePoint" />
            <mxPoint x="460" y="309.89" as="targetPoint" />
          </mxGeometry>
        </mxCell>
        <mxCell id="2DcF1gHjVt7lIWrnkzcG-162" value="" style="group" vertex="1" connectable="0" parent="1">
          <mxGeometry x="470" y="250" width="50" height="120" as="geometry" />
        </mxCell>
        <mxCell id="2DcF1gHjVt7lIWrnkzcG-126" value="&lt;font style=&quot;font-size: 10px;&quot; face=&quot;Simsun&quot;&gt;&lt;b&gt;大语言&lt;/b&gt;&lt;/font&gt;&lt;div&gt;&lt;font style=&quot;font-size: 10px;&quot; face=&quot;Simsun&quot;&gt;&lt;b&gt;模型&lt;/b&gt;&lt;/font&gt;&lt;/div&gt;" style="rounded=1;whiteSpace=wrap;html=1;fillColor=#d5e8d4;strokeColor=#82b366;" vertex="1" parent="2DcF1gHjVt7lIWrnkzcG-162">
          <mxGeometry width="50" height="120" as="geometry" />
        </mxCell>
        <mxCell id="2DcF1gHjVt7lIWrnkzcG-161" value="" style="shape=image;verticalLabelPosition=bottom;labelBackgroundColor=default;verticalAlign=top;aspect=fixed;imageAspect=0;editableCssRules=.*;image=data:image/svg+xml,PHN2ZyB4bWxuczp4bGluaz0iaHR0cDovL3d3dy53My5vcmcvMTk5OS94bGluayIgeG1sbnM9Imh0dHA6Ly93d3cudzMub3JnLzIwMDAvc3ZnIiBoZWlnaHQ9IjE4NS45MjgyOTcwNDI4NDY2OCIgd2lkdGg9IjE0MS4yMzU1MTg0NTU1MDUzNyIgdmVyc2lvbj0iMS4xIiB2aWV3Qm94PSIxNDkuNjY0NzQ5MTQ1NTA3OCA3Mi4wNDcxMzQzOTk0MTQwNiA3MjMuMTI1ODU0NDkyMTg3NSA5NTEuOTUyODgwODU5Mzc1IiBjbGFzcz0iaWNvbiI+PHBhdGggZmlsbD0iIzAwMDAwMCIgZD0iTTI4Ny44OTc2IDc5LjYxNmMtNDIuMzkzNiAyNS42LTY4Ljc2MTYgMTE3Ljk2NDgtNTkuMTg3MiAyMDUuNTY4bDMuNTg0IDM0LjgxNi0xOS45NjggMTkuOTY4Yy02NC44MTkyIDY0LTgxLjIwMzIgMTYzLjIyNTYtNDAuNDQ4IDI0My4ybDEwLjg1NDQgMjEuMjQ4LTEwLjAzNTIgMjQuNzgwOGMtMjUuOTU4NCA2NS4yMjg4LTIzLjk2MTYgMTQ0LjAyNTYgNC40MDMyIDIwMC44MDY0bDExLjYyMjQgMjIuNzg0LTcuMTY4IDE0Ljg0OGMtMTYuNDM1MiAzMy41ODcyLTI0LjQyMjQgMTA3LjUyLTE0Ljg0OCAxNDEuMTU4NGwzLjk5MzYgMTUuMjA2NGg2MC40MTZsLTMuMTc0NC0xMy4yMDk2Yy0yLjA0OC02LjgwOTYtMy41ODQtMzAuNzcxMi0zLjU4NC01Mi43ODcyIDAtMzcuOTkwNCAwLjc2OC00MS42MjU2IDE1LjE1NTItNzEuNTc3NiA3Ljk4NzItMTcuMjAzMiAxNC44NDgtMzQuNDA2NCAxNC44NDgtMzguMDQxNiAwLTMuNTg0LTUuNjMyLTE1LjU2NDgtMTIuOC0yNi43Nzc2LTM1LjYzNTItNTUuNjAzMi0zNi40NTQ0LTEyMy41OTY4LTIuODE2LTE5MC40MTI4IDE0Ljc5NjgtMjkuNTkzNiAxNC4zMzYtMzguODA5Ni0yLjA0OC01OC43Nzc2LTIyLjM3NDQtMjYuNDE5Mi0zMy4xNzc2LTY5LjIyMjQtMjYuMzY4LTEwNC40NDggOS41NzQ0LTUwLjM4MDggNDAuMzk2OC05Mi43NzQ0IDgxLjk3MTItMTEyLjM4NCAyMC4wMTkyLTkuNTc0NCAyOS4xODQtMTEuNTcxMiA1NC43ODQtMTEuNTcxMmgzMS4yMzJsNy45ODcyLTE2LjAyNTZjMTguNDMyLTM2LjM1MiA1MC40MzItNjEuNTkzNiA5My41OTM2LTczLjk4NCA1NS42MDMyLTE2LjM4NCAxMjQuNDE2IDE0Ljc5NjggMTU0LjgyODggNzAuNGw5LjU3NDQgMTcuNjEyOCAzNC4wNDggMS45OTY4YzU3Ljk1ODQgMy45OTM2IDkzLjE4NCAyNy4xODcyIDExOC4zNzQ0IDc3Ljk3NzYgMjUuNiA1Mi4wMTkyIDIyLjQyNTYgMTA3LjIxMjgtOC4zOTY4IDE0Ny42MDk2LTE3LjIwMzIgMjIuNDI1Ni0xNy4yMDMyIDMyLTIuNDA2NCA2MS41OTM2IDMzLjU4NzIgNjYuODE2IDMyLjc2OCAxMzQuODA5Ni0yLjgxNiAxOTAuNDEyOC03LjE2OCAxMS4yMTI4LTEyLjggMjMuMTkzNi0xMi44IDI2Ljc3NzZzNi44MDk2IDIwLjgzODQgMTQuODQ4IDM3Ljk5MDRjMTQuMzM2IDMwLjAwMzIgMTUuMTU1MiAzMy42Mzg0IDE1LjE1NTIgNzEuNjI4OCAwIDIyLjAxNi0xLjU4NzIgNDUuOTc3Ni0zLjU4NCA1Mi43ODcybC0zLjIyNTYgMTMuMjA5Nmg2MC40MTZsMy45OTM2LTE0Ljg0OGM5LjYyNTYtMzMuOTQ1NiAxLjYzODQtMTA3LjkyOTYtMTQuNzk2OC0xNDEuNTY4bC03LjE2OC0xNC43OTY4IDExLjU3MTItMjIuNzg0YzI4LjQxNi01Ni44MzIgMzAuNDEyOC0xMzUuNTc3NiAzLjk5MzYtMjAxLjYyNTZsLTkuOTg0LTI1LjE5MDQgMTAuNzUyLTIyLjAxNmMyNC4wNjQtNDkuNTYxNiAyNy4yMzg0LTEwOC43NDg4IDguMDM4NC0xNjQuNzYxNi0xMC43NTItMzItMjUuMTkwNC01NC43ODQtNTAuNzkwNC03OS4yMDY0bC0xNy4yMDMyLTE3LjIwMzIgMy41ODQtMzQuODE2YzcuMjE5Mi02NS45OTY4LTguNzU1Mi0xNDguMzc3Ni0zNS41ODQtMTgzLjYwMzItMjEuMTk2OC0yNy45NTUyLTQ5LjYxMjgtMzYuMzUyLTc5LjIwNjQtMjMuOTYxNi0yNy4xODcyIDExLjE2MTYtNTAuNzkwNCA1MS41NTg0LTYxLjk1MiAxMDYuMzkzNi01LjIyMjQgMjYuMDA5Ni04LjAzODQgMzEuNTkwNC0xMi44IDI5LjU5MzYtMzQuMDQ4LTE1LjYxNi02MC40MTYtMjEuNjA2NC05NC44MjI0LTIxLjYwNjQtMzUuMjI1NiAwLTUzLjI0OCA0LjQwMzItOTMuMTg0IDIxLjYwNjQtNC44MTI4IDEuOTk2OC03LjY4LTMuNTg0LTEyLjgtMjkuNTkzNi0xMS4yNjQtNTQuNzg0LTM0LjgxNi05NS4yMzItNjIuMDU0NC0xMDYuMzkzNi0xOC4zODA4LTguMDM4NC00MS4xNjQ4LTYuODA5Ni01NS42MDMyIDEuOTk2OHogbTQ1LjYxOTIgNzMuNTc0NGMxNi4wMjU2IDMyLjc2OCAyNy4xODcyIDExMC43OTY4IDE3LjYxMjggMTI1LjIzNTItMS41ODcyIDIuMzU1Mi0xMy42MTkyIDUuNTgwOC0yNi44Mjg4IDcuMTY4LTEzLjE1ODQgMS41ODcyLTI3LjEzNiAzLjU4NC0zMC43NzEyIDQuODEyOC02LjQgMS45OTY4LTcuMTY4LTEuNTg3Mi03LjE2OC0zNy4yMjI0IDAtMjEuNjA2NCAyLjc2NDgtNTAuMzgwOCA1LjkzOTItNjQuNDA5NiA3LjIxOTItMjkuOTUyIDIwLjgzODQtNTcuOTU4NCAyNy4yMzg0LTU1LjU1MiAyLjQwNjQgMC43NjggOC44MDY0IDkuOTg0IDEzLjk3NzYgMTkuOTY4eiBtMzg0LjgxOTItNS4xNzEyYzEyLjggMjQuNzgwOCAxOS45NjggNjIuNzcxMiAxOS45NjggMTA1LjU3NDQgMCAzMC44MjI0LTEuMTc3NiAzOC44MDk2LTUuMTcxMiAzNy4yMjI0LTMuMjI1Ni0xLjIyODgtMTcuNjEyOC0zLjIyNTYtMzItNC44MTI4LTMyLTMuNTg0LTMzLjIyODgtNS42MzItMjkuNTkzNi01NC4wMTYgMy41ODQtNDMuMTYxNiAyMy4xOTM2LTk5Ljk5MzYgMzUuMTc0NC05OS45OTM2IDIuMDQ4IDAgNy4xNjggNy4xNjggMTEuNjIyNCAxNi4wMjU2eiIvPjxwYXRoIGZpbGw9IiMwMDAwMDAiIGQ9Ik00NTMuNTI5NiA0NzkuNTkwNGMtNDQuOCAxOC4wMjI0LTc1LjIxMjggNDcuNjE2LTg1LjYwNjQgODMuNjA5Ni0xNS42MTYgNTQuMDE2IDguMzk2OCAxMDEuMjIyNCA2NC40MDk2IDEyNy41OTA0IDIyLjc4NCAxMC4zOTM2IDI3LjE4NzIgMTEuMjEyOCA3OS45NzQ0IDExLjIxMjggNTIuNzg3MiAwIDU3LjE5MDQtMC44MTkyIDgwLjAyNTYtMTEuMjEyOCA0MS4xNjQ4LTE5LjIgNjQtNDcuOTc0NCA2OC43NjE2LTg2LjM3NDQgNS4yMjI0LTQ2LjQzODQtMjMuOTYxNi05Mi40MTYtNzMuOTg0LTExNy4yNDgtMjQuMzcxMi0xMi4zOTA0LTMwLjAwMzItMTMuMTU4NC03MC44MDk2LTEzLjk3NzYtMzUuMTc0NC0wLjc2OC00Ny42MTYgMC40MDk2LTYyLjc3MTIgNi40eiBtMTAxLjk5MDQgMzguODA5NmM5Ljk4NCAzLjIyNTYgMjYuNDE5MiAxMy4yMDk2IDM2LjQwMzIgMjIuMDE2IDM1LjIyNTYgMzEuMjMyIDM3Ljk5MDQgNjguNDAzMiA2LjgwOTYgOTYuNzY4LTIxLjYwNjQgMTkuNjA5Ni00MC4wMzg0IDI0LjgzMi04Ni40MjU2IDI0LjgzMi00Ni4zODcyIDAtNjQuNzY4LTUuMjIyNC04Ni4zNzQ0LTI0LjgzMi0zMS4yMzItMjguMzY0OC0yOC40MTYtNjUuNTM2IDYuODA5Ni05Ni43NjggOS45ODQtOC44MDY0IDI1LjYtMTguNDMyIDM0LjgxNi0yMi4wMTYgMjIuMzc0NC03LjU3NzYgNjUuMTc3Ni03Ljk4NzIgODcuOTYxNiAweiIvPjxwYXRoIGZpbGw9IiMwMDAwMDAiIGQ9Ik00ODAuNzY4IDU1OC43OTY4Yy01LjYzMiA1LjYzMi0yLjA0OCAyNS4xOTA0IDUuMTIgMzAuMDAzMiA0LjgxMjggMy41ODQgOC40NDggMTEuMjEyOCA5LjIxNiAyMS4xOTY4IDEuMjI4OCAxNS42MTYgMS42Mzg0IDE2LjAyNTYgMTcuMjAzMiAxNi4wMjU2IDE1LjYxNiAwIDE2LjAyNTYtMC40MDk2IDE2LjM4NC0xNS4yMDY0IDAtMTAuMDM1MiAzLjIyNTYtMTcuNjEyOCA4LjgwNjQtMjIuODM1MiA5LjYyNTYtOS4yMTYgMTEuNjIyNC0yMC43ODcyIDQuMDQ0OC0yNi43Nzc2LTUuNjMyLTQuNDAzMi01Ni44MzItNS45OTA0LTYwLjgyNTYtMi40MDY0ek0zMTEuODU5MiA0ODAuNDA5NmMtMTguNDMyIDkuMjE2LTI4LjAwNjQgNDQuOC0xNi4zODQgNjAuMDA2NCA3LjE2OCA5LjIxNiAyMC43ODcyIDE1LjU2NDggMzMuOTk2OCAxNS41NjQ4IDE3LjIwMzIgMCAzNi44MTI4LTIzLjE5MzYgMzYuODEyOC00My4xNjE2IDAtOC4wMzg0LTIuNDA2NC0xNy42MTI4LTUuMjIyNC0yMS4xOTY4YTQwLjk2IDQwLjk2IDAgMCAwLTQ5LjE1Mi0xMS4yNjR6IG0zNjQuMzkwNCAwLjQwOTZjLTEyLjggNy4xNjgtMTcuNTYxNiAxNS45NzQ0LTE3Ljk3MTIgMzIgMCAxOS45NjggMTkuNjA5NiA0My4xNjE2IDM2LjgxMjggNDMuMTYxNiAyMy4xOTM2IDAgMzguNzU4NC0xMy45Nzc2IDM5LjE2OC0zNS4xNzQ0IDAtMzIuNzY4LTMyLTU0Ljc4NC01OC4wMDk2LTM5Ljk4NzJ6Ii8+PC9zdmc+;" vertex="1" parent="2DcF1gHjVt7lIWrnkzcG-162">
          <mxGeometry x="17.41999999999996" y="15" width="15.17" height="20" as="geometry" />
        </mxCell>
        <mxCell id="2DcF1gHjVt7lIWrnkzcG-170" value="" style="rounded=0;whiteSpace=wrap;html=1;fillColor=#d5e8d4;strokeColor=#82b366;" vertex="1" parent="1">
          <mxGeometry x="560" y="290" width="10" height="10" as="geometry" />
        </mxCell>
        <mxCell id="2DcF1gHjVt7lIWrnkzcG-171" value="" style="rounded=0;whiteSpace=wrap;html=1;fillColor=#d5e8d4;strokeColor=#82b366;" vertex="1" parent="1">
          <mxGeometry x="560" y="300" width="10" height="10" as="geometry" />
        </mxCell>
        <mxCell id="2DcF1gHjVt7lIWrnkzcG-172" value="" style="rounded=0;whiteSpace=wrap;html=1;fillColor=#d5e8d4;strokeColor=#82b366;" vertex="1" parent="1">
          <mxGeometry x="560" y="280" width="10" height="10" as="geometry" />
        </mxCell>
        <mxCell id="2DcF1gHjVt7lIWrnkzcG-173" value="" style="rounded=0;whiteSpace=wrap;html=1;fillColor=#d5e8d4;strokeColor=#82b366;" vertex="1" parent="1">
          <mxGeometry x="560" y="320" width="10" height="10" as="geometry" />
        </mxCell>
        <mxCell id="2DcF1gHjVt7lIWrnkzcG-174" value="" style="rounded=0;whiteSpace=wrap;html=1;fillColor=#d5e8d4;strokeColor=#82b366;" vertex="1" parent="1">
          <mxGeometry x="560" y="330" width="10" height="10" as="geometry" />
        </mxCell>
        <mxCell id="2DcF1gHjVt7lIWrnkzcG-175" value="" style="rounded=0;whiteSpace=wrap;html=1;fillColor=#d5e8d4;strokeColor=#82b366;" vertex="1" parent="1">
          <mxGeometry x="560" y="310" width="10" height="10" as="geometry" />
        </mxCell>
        <mxCell id="2DcF1gHjVt7lIWrnkzcG-176" value="&lt;font style=&quot;font-size: 8px;&quot;&gt;$$(C)$$&lt;/font&gt;" style="text;html=1;align=center;verticalAlign=middle;whiteSpace=wrap;rounded=0;" vertex="1" parent="1">
          <mxGeometry x="570" y="320" width="30" height="20" as="geometry" />
        </mxCell>
        <mxCell id="2DcF1gHjVt7lIWrnkzcG-178" value="" style="endArrow=classic;html=1;rounded=0;fillColor=#d5e8d4;strokeColor=#82b366;" edge="1" parent="1">
          <mxGeometry width="50" height="50" relative="1" as="geometry">
            <mxPoint x="530" y="309.76" as="sourcePoint" />
            <mxPoint x="550" y="310" as="targetPoint" />
          </mxGeometry>
        </mxCell>
        <mxCell id="2DcF1gHjVt7lIWrnkzcG-203" value="" style="group" vertex="1" connectable="0" parent="1">
          <mxGeometry x="600" y="159" width="10" height="121" as="geometry" />
        </mxCell>
        <mxCell id="2DcF1gHjVt7lIWrnkzcG-179" value="" style="rounded=0;whiteSpace=wrap;html=1;fillColor=#d5e8d4;strokeColor=#82b366;" vertex="1" parent="2DcF1gHjVt7lIWrnkzcG-203">
          <mxGeometry y="71" width="10" height="10" as="geometry" />
        </mxCell>
        <mxCell id="2DcF1gHjVt7lIWrnkzcG-180" value="" style="rounded=0;whiteSpace=wrap;html=1;fillColor=#d5e8d4;strokeColor=#82b366;" vertex="1" parent="2DcF1gHjVt7lIWrnkzcG-203">
          <mxGeometry y="81" width="10" height="10" as="geometry" />
        </mxCell>
        <mxCell id="2DcF1gHjVt7lIWrnkzcG-181" value="" style="rounded=0;whiteSpace=wrap;html=1;fillColor=#d5e8d4;strokeColor=#82b366;" vertex="1" parent="2DcF1gHjVt7lIWrnkzcG-203">
          <mxGeometry y="61" width="10" height="10" as="geometry" />
        </mxCell>
        <mxCell id="2DcF1gHjVt7lIWrnkzcG-182" value="" style="rounded=0;whiteSpace=wrap;html=1;fillColor=#d5e8d4;strokeColor=#82b366;" vertex="1" parent="2DcF1gHjVt7lIWrnkzcG-203">
          <mxGeometry y="101" width="10" height="10" as="geometry" />
        </mxCell>
        <mxCell id="2DcF1gHjVt7lIWrnkzcG-183" value="" style="rounded=0;whiteSpace=wrap;html=1;fillColor=#d5e8d4;strokeColor=#82b366;" vertex="1" parent="2DcF1gHjVt7lIWrnkzcG-203">
          <mxGeometry y="111" width="10" height="10" as="geometry" />
        </mxCell>
        <mxCell id="2DcF1gHjVt7lIWrnkzcG-184" value="" style="rounded=0;whiteSpace=wrap;html=1;fillColor=#d5e8d4;strokeColor=#82b366;" vertex="1" parent="2DcF1gHjVt7lIWrnkzcG-203">
          <mxGeometry y="91" width="10" height="10" as="geometry" />
        </mxCell>
        <mxCell id="2DcF1gHjVt7lIWrnkzcG-197" value="" style="rounded=0;whiteSpace=wrap;html=1;fillColor=#fff2cc;strokeColor=#d6b656;" vertex="1" parent="2DcF1gHjVt7lIWrnkzcG-203">
          <mxGeometry y="10" width="10" height="10" as="geometry" />
        </mxCell>
        <mxCell id="2DcF1gHjVt7lIWrnkzcG-198" value="" style="rounded=0;whiteSpace=wrap;html=1;fillColor=#fff2cc;strokeColor=#d6b656;" vertex="1" parent="2DcF1gHjVt7lIWrnkzcG-203">
          <mxGeometry y="20" width="10" height="10" as="geometry" />
        </mxCell>
        <mxCell id="2DcF1gHjVt7lIWrnkzcG-199" value="" style="rounded=0;whiteSpace=wrap;html=1;fillColor=#fff2cc;strokeColor=#d6b656;" vertex="1" parent="2DcF1gHjVt7lIWrnkzcG-203">
          <mxGeometry width="10" height="10" as="geometry" />
        </mxCell>
        <mxCell id="2DcF1gHjVt7lIWrnkzcG-200" value="" style="rounded=0;whiteSpace=wrap;html=1;fillColor=#fff2cc;strokeColor=#d6b656;" vertex="1" parent="2DcF1gHjVt7lIWrnkzcG-203">
          <mxGeometry y="40" width="10" height="10" as="geometry" />
        </mxCell>
        <mxCell id="2DcF1gHjVt7lIWrnkzcG-201" value="" style="rounded=0;whiteSpace=wrap;html=1;fillColor=#fff2cc;strokeColor=#d6b656;" vertex="1" parent="2DcF1gHjVt7lIWrnkzcG-203">
          <mxGeometry y="50" width="10" height="10" as="geometry" />
        </mxCell>
        <mxCell id="2DcF1gHjVt7lIWrnkzcG-202" value="" style="rounded=0;whiteSpace=wrap;html=1;fillColor=#fff2cc;strokeColor=#d6b656;" vertex="1" parent="2DcF1gHjVt7lIWrnkzcG-203">
          <mxGeometry y="30" width="10" height="10" as="geometry" />
        </mxCell>
        <mxCell id="2DcF1gHjVt7lIWrnkzcG-204" value="" style="endArrow=classic;html=1;rounded=0;fillColor=#d5e8d4;strokeColor=#82b366;" edge="1" parent="1">
          <mxGeometry width="50" height="50" relative="1" as="geometry">
            <mxPoint x="580" y="310" as="sourcePoint" />
            <mxPoint x="590" y="270" as="targetPoint" />
          </mxGeometry>
        </mxCell>
        <mxCell id="2DcF1gHjVt7lIWrnkzcG-205" value="" style="endArrow=classic;html=1;rounded=0;fillColor=#fff2cc;strokeColor=#d6b656;" edge="1" parent="1">
          <mxGeometry width="50" height="50" relative="1" as="geometry">
            <mxPoint x="440" y="150" as="sourcePoint" />
            <mxPoint x="590" y="190" as="targetPoint" />
          </mxGeometry>
        </mxCell>
        <mxCell id="2DcF1gHjVt7lIWrnkzcG-206" value="" style="endArrow=classic;html=1;rounded=0;fillColor=#e1d5e7;strokeColor=#9673a6;" edge="1" parent="1">
          <mxGeometry width="50" height="50" relative="1" as="geometry">
            <mxPoint x="620" y="219.75" as="sourcePoint" />
            <mxPoint x="640" y="219.99" as="targetPoint" />
          </mxGeometry>
        </mxCell>
      </root>
    </mxGraphModel>
  </diagram>
</mxfile>
